<svg class="icon" viewBox="0 0 1024 1024" xmlns="http://www.w3.org/2000/svg" width="64" height="64"><path d="M948.148 1024v-75.852H1024V1024h-75.852zm0-88.494h-75.852v-75.852H834.37v25.284H758.52v-88.494h75.851v-88.493h-88.493v75.851h-75.852v75.852H505.679v88.494h-75.852V796.444h75.852v-88.493h164.346v-75.852h278.123v75.852H1024v151.703h-75.852v75.852zM429.828 632.1h75.851v75.852h-75.852v-75.852zm366.616-126.42h75.852v-75.852h75.852v75.852H1024v75.852H796.444v-75.852zm-50.567-151.704h-75.852V0H1024v353.975H745.877zM948.148 75.852H745.877v202.271h202.271V75.852zM897.58 227.556H796.444V126.42H897.58v101.136zM771.16 505.679h-63.21v75.852H594.174v-75.852h-88.494v75.852h-189.63v-75.852h-88.493v75.852H88.494v-75.852h75.852v-75.852H518.32V316.05h75.852v113.778H771.16v75.852zM518.321 227.556h-12.642v88.493h-75.852V164.346h88.494V75.852h75.852v151.704H518.32zM429.827 0h75.852v75.852h-75.852V0zM75.852 353.975H0V0h353.975v353.975H75.852zM278.123 75.852H75.852v202.271h202.271V75.852zm-50.567 151.704H126.42V126.42h101.136v101.136zM75.852 505.679H0v-75.852h75.852v75.852zm202.271 164.346h75.852V1024H0V670.025h278.123zM75.852 948.148h202.271V745.877H75.852v202.271zm50.568-151.704h101.136V897.58H126.42V796.444zM594.173 1024H518.32v-75.852h75.852V1024zm151.704 0h-75.852V872.296h75.852V1024zm164.345 0H834.37v-75.852h75.852V1024z" fill="#fff"/></svg>